# xmcd
#
# Track frame offsets:
#	150
#	25238
#	45140
#	65915
#	79687
#	99453
#	126369
#	145457
#	163869
#	187514
#	227747
#
# Disc length: 3154 seconds
#
# Revision: 1
# Processed by: cddbd v1.4PL0 Copyright (c) Steve Scherf et al.
# Submitted via: CDmax 1.8
#
DISCID=8c0c500b
DTITLE=David Gray - White Ladder
DYEAR=1998
DGENRE=Blues
TTITLE0=Please forgive me
TTITLE1=Babylon
TTITLE2=My oh my
TTITLE3=We're not right
TTITLE4=Nightblindness
TTITLE5=Silver lining
TTITLE6=White ladder
TTITLE7=This years love
TTITLE8=Sail away
TTITLE9=Say hello wave goodbye
TTITLE10=I can't get through to myself
EXTD=
EXTT0=
EXTT1=
EXTT2=
EXTT3=
EXTT4=
EXTT5=
EXTT6=
EXTT7=
EXTT8=
EXTT9=
EXTT10=
PLAYORDER=
